<svg version="1.1" id="Layer_1" xmlns="http://www.w3.org/2000/svg" xmlns:xlink="http://www.w3.org/1999/xlink" x="0px" y="0px"
	 width="100%" viewBox="0 0 1200 1200" enable-background="new 0 0 1200 1200" xml:space="preserve">
<path fill="#076AE1" opacity="1.000000" stroke="none" 
	d="
M757.000000,1201.000000 
	C504.666656,1201.000000 252.833328,1201.000000 1.000000,1201.000000 
	C1.000000,801.000000 1.000000,401.000000 1.000000,1.000000 
	C401.000000,1.000000 801.000000,1.000000 1201.000000,1.000000 
	C1201.000000,401.000000 1201.000000,801.000000 1201.000000,1201.000000 
	C1053.166626,1201.000000 905.333313,1201.000000 757.000000,1201.000000 
M436.500000,574.001099 
	C470.924164,574.001099 505.348328,574.001099 539.805664,574.001099 
	C539.805664,541.236816 539.805664,509.132141 539.805664,476.382019 
	C491.035339,476.382019 442.483887,476.382019 393.760559,476.382019 
	C393.760559,451.983246 393.760559,428.231323 393.760559,404.005096 
	C453.593781,404.005096 513.175354,404.005096 572.947510,404.005096 
	C572.947510,368.820740 572.947510,334.111725 572.947510,299.329102 
	C472.919373,299.329102 373.197113,299.329102 273.436859,299.329102 
	C273.436859,445.198303 273.436859,590.750305 273.436859,736.394958 
	C313.497223,736.394958 353.233002,736.394958 393.534851,736.394958 
	C393.534851,682.201233 393.534851,628.310425 393.534851,574.001099 
	C407.898773,574.001099 421.699402,574.001099 436.500000,574.001099 
M802.499756,736.655212 
	C869.738342,736.655212 936.976868,736.655212 1004.655273,736.655212 
	C1004.655273,734.272583 1004.655334,732.637268 1004.655334,731.001953 
	C1004.655823,620.703857 1004.641541,510.405792 1004.724731,400.107788 
	C1004.727356,396.654358 1003.681702,394.241821 1001.253357,391.825989 
	C973.141052,363.859650 945.100830,335.820496 917.137268,307.705414 
	C914.711182,305.266205 912.277344,304.273529 908.838806,304.277527 
	C833.362976,304.365631 757.887146,304.344788 682.411255,304.344788 
	C680.651550,304.344788 678.891846,304.344788 676.682861,304.344788 
	C676.682861,380.930328 676.682861,456.831512 676.682861,533.407776 
	C666.010132,533.407776 655.775818,533.407776 645.480957,533.407776 
	C645.348816,534.885437 645.212769,535.697998 645.212524,536.510559 
	C645.200623,577.497437 645.160889,618.484497 645.318420,659.470764 
	C645.326050,661.463440 646.639221,663.871948 648.086853,665.368896 
	C656.540222,674.110046 665.322510,682.534241 673.721985,691.325195 
	C675.344727,693.023560 676.522827,695.847473 676.602478,698.196411 
	C676.924255,707.682434 676.736023,717.185852 676.736145,726.682800 
	C676.736145,729.924255 676.736145,733.165771 676.736145,736.210144 
	C677.892517,736.461548 678.216309,736.593445 678.540222,736.593628 
	C719.526733,736.620422 760.513184,736.637573 802.499756,736.655212 
M601.423462,905.332886 
	C604.529968,905.332886 607.636414,905.332886 610.700073,905.332886 
	C610.700073,887.399048 610.756348,870.087524 610.639954,852.777161 
	C610.622375,850.152832 609.984131,847.486877 609.320374,844.921082 
	C607.063110,836.195190 602.722778,829.089355 593.162109,827.185181 
	C585.040466,825.567627 577.232910,826.442322 570.560059,832.100403 
	C568.077820,834.205200 565.493347,836.189331 562.707703,838.427612 
	C557.851257,829.783691 550.493591,826.612183 541.307678,826.447510 
	C531.871399,826.278320 525.256226,831.875793 518.187012,837.683838 
	C517.312622,834.140198 516.604736,831.271301 515.893921,828.390381 
	C508.707764,828.390381 501.771545,828.390381 494.563232,828.390381 
	C494.563232,854.021851 494.563232,879.403076 494.563232,905.058655 
	C503.428680,905.058655 512.030518,905.058655 521.006897,905.058655 
	C521.006897,889.577148 520.999146,874.276428 521.011108,858.975769 
	C521.015198,853.674011 525.988464,849.073914 531.723816,849.018494 
	C536.592896,848.971436 539.014893,851.612122 539.158508,858.140015 
	C539.400330,869.128845 539.295471,880.125305 539.327026,891.118591 
	C539.340149,895.709290 539.329224,900.300110 539.329224,905.062744 
	C548.522705,905.062744 557.116028,905.062744 566.006836,905.062744 
	C566.006836,889.979736 566.006409,875.166199 566.007141,860.352661 
	C566.007446,854.247009 568.156067,851.281006 573.877808,849.482117 
	C579.215027,847.804077 583.227051,850.218079 583.938599,855.808289 
	C584.336548,858.934265 584.336060,862.123230 584.345825,865.284302 
	C584.386597,878.426147 584.362976,891.568115 584.362976,905.332825 
	C589.858765,905.332825 595.153381,905.332825 601.423462,905.332886 
M415.755524,827.461243 
	C403.390289,824.277405 393.392914,828.907837 384.486694,838.204895 
	C383.802032,834.911377 383.555756,832.760193 382.856720,830.768005 
	C382.502716,829.759094 381.353638,828.324707 380.525330,828.298340 
	C374.092133,828.093567 367.649475,828.185303 361.157410,828.185303 
	C361.157410,854.156372 361.157410,879.546936 361.157410,905.065186 
	C369.888336,905.065186 378.301392,905.065186 387.270569,905.065186 
	C387.270569,903.047852 387.271667,901.260803 387.270355,899.473755 
	C387.260529,885.984375 387.242188,872.494934 387.244202,859.005554 
	C387.244934,853.935547 391.885284,849.436584 397.484497,849.027222 
	C402.455841,848.663757 405.066528,851.136963 405.574799,857.520447 
	C405.983490,862.653625 405.830444,867.835022 405.845917,872.995239 
	C405.877716,883.605957 405.855469,894.216797 405.855469,904.938049 
	C414.892975,904.938049 423.418274,904.938049 432.222321,904.938049 
	C432.222321,889.419617 432.140625,874.284607 432.317261,859.152649 
	C432.341553,857.069153 433.082642,854.437561 434.475525,853.039795 
	C437.596619,849.907654 441.550659,847.751526 446.209198,849.581970 
	C450.655762,851.329163 450.216187,855.672363 450.729614,859.377258 
	C450.956482,861.014282 450.837860,862.702332 450.837921,864.367188 
	C450.838470,876.357727 450.829041,888.348328 450.823090,900.338867 
	C450.822296,901.924438 450.822968,903.510010 450.822968,904.967407 
	C459.999725,904.967407 468.405640,904.967407 477.051636,904.967407 
	C477.051636,888.320374 477.111420,872.026611 477.001770,855.734009 
	C476.979553,852.432251 476.653381,849.054321 475.886108,845.850708 
	C473.767426,837.005066 469.736542,829.431274 459.944550,827.304199 
	C451.663239,825.505310 443.695007,826.363098 436.862610,832.121338 
	C434.452301,834.152710 431.992523,836.125366 430.435028,837.403076 
	C425.564301,834.034485 421.030945,830.899231 415.755524,827.461243 
M224.663406,870.760559 
	C228.160461,872.259216 231.635788,873.951721 230.613754,878.653564 
	C229.652390,883.076233 225.937103,884.223450 222.141815,884.069275 
	C217.884140,883.896362 213.438736,883.563049 209.475159,882.165100 
	C204.716675,880.486755 200.380508,877.611023 195.573929,875.103821 
	C190.817444,880.816040 185.950043,886.661499 181.099442,892.486755 
	C195.143478,906.687256 222.360611,911.506897 239.802444,902.765381 
	C251.296906,897.004578 257.886902,887.704651 257.892426,874.565369 
	C257.897980,861.318176 250.816391,852.850403 238.906754,847.978455 
	C236.137451,846.845520 233.322327,845.823792 230.560822,844.672852 
	C225.346405,842.499573 220.007248,840.548645 215.038071,837.906860 
	C213.370163,837.020142 211.560730,834.145020 211.814072,832.483398 
	C212.114563,830.512451 214.258865,827.941956 216.166336,827.298706 
	C219.186890,826.280151 222.875793,825.842590 225.920929,826.603577 
	C231.450043,827.985291 236.713776,830.429016 242.594330,832.617798 
	C246.520203,827.707214 250.839386,822.304688 255.299622,816.725708 
	C242.280655,805.394653 227.818954,801.047546 211.389374,804.617859 
	C196.686615,807.813049 185.981323,818.794250 184.917343,831.029480 
	C183.619675,845.952148 190.365112,856.160645 206.049118,862.892883 
	C212.007690,865.450684 218.014511,867.896057 224.663406,870.760559 
M293.670380,907.073669 
	C304.125519,907.928955 312.057770,902.905396 319.264130,894.977295 
	C320.124542,899.054199 320.762024,902.074768 321.365112,904.932434 
	C328.658447,904.932434 335.725189,904.932434 342.617340,904.932434 
	C342.617340,879.158875 342.617340,853.760803 342.617340,828.529175 
	C333.664642,828.529175 325.106201,828.529175 316.289246,828.529175 
	C316.289246,830.750244 316.285614,832.569031 316.289856,834.387756 
	C316.321259,847.885803 316.393250,861.383911 316.367523,874.881836 
	C316.357208,880.295776 311.899353,884.324829 305.853271,884.614990 
	C300.798401,884.857483 298.205017,882.173279 297.944489,875.950134 
	C297.714600,870.459412 297.778656,864.955261 297.766510,859.456909 
	C297.743835,849.174927 297.759979,838.892883 297.759979,828.499512 
	C288.622345,828.499512 279.917542,828.499512 271.047089,828.499512 
	C271.047089,837.533752 270.917633,846.193970 271.080566,854.848755 
	C271.274811,865.165405 271.120911,875.540833 272.205811,885.775513 
	C273.600769,898.935120 280.657532,905.652039 293.670380,907.073669 
M661.211243,903.816711 
	C663.956482,901.977234 666.701721,900.137695 669.823181,898.046143 
	C670.290588,899.753906 670.445312,901.435669 671.211365,902.765076 
	C671.826111,903.831848 673.157715,905.151001 674.213318,905.188965 
	C680.489258,905.414917 686.777405,905.300659 694.254883,905.300659 
	C693.503601,886.189392 693.531128,867.558044 691.775452,849.096252 
	C690.624939,836.997375 681.677368,829.204651 669.590698,827.232483 
	C654.489197,824.768433 640.680725,828.701050 627.473572,836.735291 
	C630.632629,842.593628 633.653687,848.196106 636.702576,853.850098 
	C639.070374,852.715820 640.778687,851.494873 642.666321,851.069153 
	C648.247070,849.810547 653.866394,848.324341 659.533813,847.986023 
	C663.421509,847.753845 666.055542,850.600647 666.690430,855.151489 
	C664.966309,855.464539 663.503052,855.651001 662.080322,856.001831 
	C654.993652,857.749268 647.733398,859.022400 640.888672,861.458374 
	C633.773438,863.990540 628.155457,868.802979 626.072693,876.544678 
	C623.477539,886.190796 625.425171,894.956970 632.975159,901.592896 
	C641.308105,908.916992 650.846924,908.601318 661.211243,903.816711 
M954.657715,853.983398 
	C951.755798,840.627441 944.992920,830.535828 930.848022,827.513428 
	C916.274109,824.399292 903.582092,828.379517 894.188843,840.060242 
	C883.149841,853.787537 882.031982,869.484436 888.756592,885.209900 
	C899.948181,911.381165 933.915466,912.090332 952.620056,897.909668 
	C949.895264,892.930298 947.140503,887.896301 944.423889,882.931946 
	C924.002014,889.542969 913.317810,886.999756 911.318176,874.915588 
	C925.630920,874.915588 939.885620,874.915588 954.822327,874.915588 
	C954.822327,867.968628 954.822327,861.390137 954.657715,853.983398 
M866.047668,850.642822 
	C869.465515,846.008240 872.883362,841.373596 876.772156,836.100403 
	C871.319641,833.394592 866.651245,830.290100 861.514221,828.688049 
	C849.816895,825.039856 838.089905,825.094604 827.515869,832.256775 
	C813.683838,841.625732 814.122131,861.088013 828.406189,869.750793 
	C833.623779,872.914978 839.506470,874.978638 845.070068,877.577820 
	C847.988098,878.941040 852.205505,879.663086 851.016785,884.159729 
	C849.836182,888.625793 845.468567,888.258972 842.244385,887.557312 
	C837.773315,886.584290 833.505371,884.605957 829.222351,882.879517 
	C827.744812,882.283813 826.482788,881.153809 824.820862,880.071594 
	C820.835754,885.653992 817.034912,890.978271 812.974915,896.665588 
	C816.669250,898.744263 819.752747,900.717407 823.031555,902.280884 
	C834.479309,907.739807 846.408142,908.892944 858.457886,904.867126 
	C868.378601,901.552734 874.790283,894.715210 875.925781,883.933960 
	C877.070801,873.062317 871.765686,865.754822 862.305908,861.246643 
	C856.913940,858.677063 851.182373,856.812256 845.832581,854.167114 
	C844.254150,853.386780 843.456909,851.026611 842.301636,849.390503 
	C843.971680,848.258789 845.847900,845.957397 847.274170,846.208801 
	C852.063232,847.052917 856.686646,848.825073 861.385193,850.201843 
	C862.773499,850.608643 864.200684,850.882935 866.047668,850.642822 
M1006.105042,851.163330 
	C1010.948792,850.629028 1015.792542,850.094666 1021.454834,849.470032 
	C1022.641907,843.063293 1024.015259,835.651062 1025.446777,827.925537 
	C1011.251892,823.951233 1001.471985,829.346924 993.677002,841.670837 
	C992.832092,836.470337 992.184753,832.486084 991.517578,828.379395 
	C984.336304,828.379395 977.422974,828.379395 970.252197,828.379395 
	C970.252197,854.022217 970.252197,879.422729 970.252197,904.916504 
	C979.004456,904.916504 987.700134,904.916504 996.552551,904.916504 
	C996.552551,892.195374 996.721802,879.885315 996.488342,867.583008 
	C996.350647,860.327271 999.261536,855.124390 1006.105042,851.163330 
M764.988159,834.583740 
	C765.328796,832.486938 765.669434,830.390076 766.065063,827.954468 
	C751.901978,823.830566 742.060059,829.400085 734.385681,841.671753 
	C733.491760,836.515625 732.775879,832.386597 732.088379,828.420959 
	C724.720581,828.420959 717.945679,828.420959 710.983276,828.420959 
	C710.983276,854.104980 710.983276,879.507446 710.983276,904.918030 
	C719.808289,904.918030 728.345093,904.918030 737.126770,904.918030 
	C737.126770,891.696960 737.107483,878.882935 737.133362,866.068970 
	C737.151184,857.235352 744.383301,849.841187 753.235107,849.748596 
	C756.001709,849.719604 758.773804,850.211121 761.838013,850.491333 
	C762.854065,845.467224 763.869263,840.446960 764.988159,834.583740 
M774.991882,874.500000 
	C774.991882,884.633240 774.991882,894.766479 774.991882,904.904419 
	C784.083435,904.904419 792.782166,904.904419 801.440918,904.904419 
	C801.440918,879.187317 801.440918,853.926636 801.440918,828.408569 
	C792.607239,828.408569 784.045410,828.408569 774.991882,828.408569 
	C774.991882,843.608765 774.991882,858.554382 774.991882,874.500000 
M782.812378,793.073975 
	C774.855713,796.847534 771.835876,803.641235 774.899719,810.875061 
	C777.699341,817.485229 786.202148,820.580566 794.122314,817.872925 
	C800.913025,815.551453 804.285034,808.512146 802.076172,801.268555 
	C799.959351,794.326782 793.021973,791.199768 782.812378,793.073975 
z"/>
<path fill="#FEFFFF" opacity="1.000000" stroke="none" 
	d="
M436.000000,574.001099 
	C421.699402,574.001099 407.898773,574.001099 393.534851,574.001099 
	C393.534851,628.310425 393.534851,682.201233 393.534851,736.394958 
	C353.233002,736.394958 313.497223,736.394958 273.436859,736.394958 
	C273.436859,590.750305 273.436859,445.198303 273.436859,299.329102 
	C373.197113,299.329102 472.919373,299.329102 572.947510,299.329102 
	C572.947510,334.111725 572.947510,368.820740 572.947510,404.005096 
	C513.175354,404.005096 453.593781,404.005096 393.760559,404.005096 
	C393.760559,428.231323 393.760559,451.983246 393.760559,476.382019 
	C442.483887,476.382019 491.035339,476.382019 539.805664,476.382019 
	C539.805664,509.132141 539.805664,541.236816 539.805664,574.001099 
	C505.348328,574.001099 470.924164,574.001099 436.000000,574.001099 
z"/>
<path fill="#F3F8FE" opacity="1.000000" stroke="none" 
	d="
M801.999756,736.655151 
	C760.513184,736.637573 719.526733,736.620422 678.540222,736.593628 
	C678.216309,736.593445 677.892517,736.461548 676.736145,736.210144 
	C676.736145,733.165771 676.736145,729.924255 676.736145,726.682800 
	C676.736023,717.185852 676.924255,707.682434 676.602478,698.196411 
	C676.522827,695.847473 675.344727,693.023560 673.721985,691.325195 
	C665.322510,682.534241 656.540222,674.110046 648.086853,665.368896 
	C646.639221,663.871948 645.326050,661.463440 645.318420,659.470764 
	C645.160889,618.484497 645.200623,577.497437 645.212524,536.510559 
	C645.212769,535.697998 645.348816,534.885437 645.480957,533.407776 
	C655.775818,533.407776 666.010132,533.407776 676.682861,533.407776 
	C676.682861,456.831512 676.682861,380.930328 676.682861,304.344788 
	C678.891846,304.344788 680.651550,304.344788 682.411255,304.344788 
	C757.887146,304.344788 833.362976,304.365631 908.838806,304.277527 
	C912.277344,304.273529 914.711182,305.266205 917.137268,307.705414 
	C945.100830,335.820496 973.141052,363.859650 1001.253357,391.825989 
	C1003.681702,394.241821 1004.727356,396.654358 1004.724731,400.107788 
	C1004.641541,510.405792 1004.655823,620.703857 1004.655334,731.001953 
	C1004.655334,732.637268 1004.655273,734.272583 1004.655273,736.655212 
	C936.976868,736.655212 869.738342,736.655212 801.999756,736.655151 
M885.500000,311.142151 
	C818.268616,311.142151 751.037170,311.142151 683.710205,311.142151 
	C683.710205,385.554138 683.710205,459.144806 683.710205,533.438232 
	C781.672668,533.438232 879.357544,533.438232 977.131592,533.438232 
	C977.131592,577.571838 977.131592,621.001709 977.131592,665.042114 
	C879.127991,665.042114 781.422729,665.042114 683.809265,665.042114 
	C683.809265,686.903870 683.809265,708.152039 683.809265,729.566162 
	C788.584229,729.566162 892.980652,729.566162 997.542542,729.566162 
	C997.542542,620.724487 997.542542,512.174744 997.542542,403.164246 
	C967.651062,403.164246 938.070251,403.164246 907.939819,403.164246 
	C907.939819,372.322113 907.939819,341.934906 907.939819,311.142151 
	C900.428406,311.142151 893.464172,311.142151 885.500000,311.142151 
M742.500061,540.142395 
	C712.422791,540.142395 682.345520,540.142395 652.382019,540.142395 
	C652.382019,579.859741 652.382019,618.773499 652.382019,657.641235 
	C758.594299,657.641235 864.480652,657.641235 970.664429,657.641235 
	C970.664429,655.648438 970.664368,653.992737 970.664368,652.337036 
	C970.664368,616.842712 970.582031,581.347961 970.765930,545.854614 
	C970.789551,541.287476 969.598633,540.027222 964.964478,540.036621 
	C891.143250,540.186829 817.321655,540.142395 742.500061,540.142395 
M921.578308,321.912018 
	C919.741333,319.864563 917.904297,317.817078 915.197571,314.800262 
	C915.197571,342.987274 915.197571,369.483124 915.197571,396.041443 
	C941.888855,396.041443 968.246094,396.041443 995.725525,396.041443 
	C970.702881,371.024506 946.391846,346.718994 921.578308,321.912018 
M659.363892,664.871338 
	C659.344299,665.648743 658.980957,666.748718 659.359680,667.152466 
	C662.318054,670.305664 665.402893,673.341492 668.480957,676.380798 
	C670.958862,678.827393 673.481873,681.228210 676.438599,684.088196 
	C676.438599,677.067444 676.438599,671.147278 676.438599,664.844177 
	C670.815552,664.844177 665.514587,664.844177 659.363892,664.871338 
z"/>
<path fill="#FBFDFF" opacity="1.000000" stroke="none" 
	d="
M600.935730,905.332886 
	C595.153381,905.332825 589.858765,905.332825 584.362976,905.332825 
	C584.362976,891.568115 584.386597,878.426147 584.345825,865.284302 
	C584.336060,862.123230 584.336548,858.934265 583.938599,855.808289 
	C583.227051,850.218079 579.215027,847.804077 573.877808,849.482117 
	C568.156067,851.281006 566.007446,854.247009 566.007141,860.352661 
	C566.006409,875.166199 566.006836,889.979736 566.006836,905.062744 
	C557.116028,905.062744 548.522705,905.062744 539.329224,905.062744 
	C539.329224,900.300110 539.340149,895.709290 539.327026,891.118591 
	C539.295471,880.125305 539.400330,869.128845 539.158508,858.140015 
	C539.014893,851.612122 536.592896,848.971436 531.723816,849.018494 
	C525.988464,849.073914 521.015198,853.674011 521.011108,858.975769 
	C520.999146,874.276428 521.006897,889.577148 521.006897,905.058655 
	C512.030518,905.058655 503.428680,905.058655 494.563232,905.058655 
	C494.563232,879.403076 494.563232,854.021851 494.563232,828.390381 
	C501.771545,828.390381 508.707764,828.390381 515.893921,828.390381 
	C516.604736,831.271301 517.312622,834.140198 518.187012,837.683838 
	C525.256226,831.875793 531.871399,826.278320 541.307678,826.447510 
	C550.493591,826.612183 557.851257,829.783691 562.707703,838.427612 
	C565.493347,836.189331 568.077820,834.205200 570.560059,832.100403 
	C577.232910,826.442322 585.040466,825.567627 593.162109,827.185181 
	C602.722778,829.089355 607.063110,836.195190 609.320374,844.921082 
	C609.984131,847.486877 610.622375,850.152832 610.639954,852.777161 
	C610.756348,870.087524 610.700073,887.399048 610.700073,905.332886 
	C607.636414,905.332886 604.529968,905.332886 600.935730,905.332886 
z"/>
<path fill="#FEFEFF" opacity="1.000000" stroke="none" 
	d="
M416.126556,827.612610 
	C421.030945,830.899231 425.564301,834.034485 430.435028,837.403076 
	C431.992523,836.125366 434.452301,834.152710 436.862610,832.121338 
	C443.695007,826.363098 451.663239,825.505310 459.944550,827.304199 
	C469.736542,829.431274 473.767426,837.005066 475.886108,845.850708 
	C476.653381,849.054321 476.979553,852.432251 477.001770,855.734009 
	C477.111420,872.026611 477.051636,888.320374 477.051636,904.967407 
	C468.405640,904.967407 459.999725,904.967407 450.822968,904.967407 
	C450.822968,903.510010 450.822296,901.924438 450.823090,900.338867 
	C450.829041,888.348328 450.838470,876.357727 450.837921,864.367188 
	C450.837860,862.702332 450.956482,861.014282 450.729614,859.377258 
	C450.216187,855.672363 450.655762,851.329163 446.209198,849.581970 
	C441.550659,847.751526 437.596619,849.907654 434.475525,853.039795 
	C433.082642,854.437561 432.341553,857.069153 432.317261,859.152649 
	C432.140625,874.284607 432.222321,889.419617 432.222321,904.938049 
	C423.418274,904.938049 414.892975,904.938049 405.855469,904.938049 
	C405.855469,894.216797 405.877716,883.605957 405.845917,872.995239 
	C405.830444,867.835022 405.983490,862.653625 405.574799,857.520447 
	C405.066528,851.136963 402.455841,848.663757 397.484497,849.027222 
	C391.885284,849.436584 387.244934,853.935547 387.244202,859.005554 
	C387.242188,872.494934 387.260529,885.984375 387.270355,899.473755 
	C387.271667,901.260803 387.270569,903.047852 387.270569,905.065186 
	C378.301392,905.065186 369.888336,905.065186 361.157410,905.065186 
	C361.157410,879.546936 361.157410,854.156372 361.157410,828.185303 
	C367.649475,828.185303 374.092133,828.093567 380.525330,828.298340 
	C381.353638,828.324707 382.502716,829.759094 382.856720,830.768005 
	C383.555756,832.760193 383.802032,834.911377 384.486694,838.204895 
	C393.392914,828.907837 403.390289,824.277405 416.126556,827.612610 
z"/>
<path fill="#FCFDFF" opacity="1.000000" stroke="none" 
	d="
M224.331390,870.576538 
	C218.014511,867.896057 212.007690,865.450684 206.049118,862.892883 
	C190.365112,856.160645 183.619675,845.952148 184.917343,831.029480 
	C185.981323,818.794250 196.686615,807.813049 211.389374,804.617859 
	C227.818954,801.047546 242.280655,805.394653 255.299622,816.725708 
	C250.839386,822.304688 246.520203,827.707214 242.594330,832.617798 
	C236.713776,830.429016 231.450043,827.985291 225.920929,826.603577 
	C222.875793,825.842590 219.186890,826.280151 216.166336,827.298706 
	C214.258865,827.941956 212.114563,830.512451 211.814072,832.483398 
	C211.560730,834.145020 213.370163,837.020142 215.038071,837.906860 
	C220.007248,840.548645 225.346405,842.499573 230.560822,844.672852 
	C233.322327,845.823792 236.137451,846.845520 238.906754,847.978455 
	C250.816391,852.850403 257.897980,861.318176 257.892426,874.565369 
	C257.886902,887.704651 251.296906,897.004578 239.802444,902.765381 
	C222.360611,911.506897 195.143478,906.687256 181.099442,892.486755 
	C185.950043,886.661499 190.817444,880.816040 195.573929,875.103821 
	C200.380508,877.611023 204.716675,880.486755 209.475159,882.165100 
	C213.438736,883.563049 217.884140,883.896362 222.141815,884.069275 
	C225.937103,884.223450 229.652390,883.076233 230.613754,878.653564 
	C231.635788,873.951721 228.160461,872.259216 224.331390,870.576538 
z"/>
<path fill="#FBFDFF" opacity="1.000000" stroke="none" 
	d="
M293.216217,907.060852 
	C280.657532,905.652039 273.600769,898.935120 272.205811,885.775513 
	C271.120911,875.540833 271.274811,865.165405 271.080566,854.848755 
	C270.917633,846.193970 271.047089,837.533752 271.047089,828.499512 
	C279.917542,828.499512 288.622345,828.499512 297.759979,828.499512 
	C297.759979,838.892883 297.743835,849.174927 297.766510,859.456909 
	C297.778656,864.955261 297.714600,870.459412 297.944489,875.950134 
	C298.205017,882.173279 300.798401,884.857483 305.853271,884.614990 
	C311.899353,884.324829 316.357208,880.295776 316.367523,874.881836 
	C316.393250,861.383911 316.321259,847.885803 316.289856,834.387756 
	C316.285614,832.569031 316.289246,830.750244 316.289246,828.529175 
	C325.106201,828.529175 333.664642,828.529175 342.617340,828.529175 
	C342.617340,853.760803 342.617340,879.158875 342.617340,904.932434 
	C335.725189,904.932434 328.658447,904.932434 321.365112,904.932434 
	C320.762024,902.074768 320.124542,899.054199 319.264130,894.977295 
	C312.057770,902.905396 304.125519,907.928955 293.216217,907.060852 
z"/>
<path fill="#FCFDFF" opacity="1.000000" stroke="none" 
	d="
M660.868225,903.975342 
	C650.846924,908.601318 641.308105,908.916992 632.975159,901.592896 
	C625.425171,894.956970 623.477539,886.190796 626.072693,876.544678 
	C628.155457,868.802979 633.773438,863.990540 640.888672,861.458374 
	C647.733398,859.022400 654.993652,857.749268 662.080322,856.001831 
	C663.503052,855.651001 664.966309,855.464539 666.690430,855.151489 
	C666.055542,850.600647 663.421509,847.753845 659.533813,847.986023 
	C653.866394,848.324341 648.247070,849.810547 642.666321,851.069153 
	C640.778687,851.494873 639.070374,852.715820 636.702576,853.850098 
	C633.653687,848.196106 630.632629,842.593628 627.473572,836.735291 
	C640.680725,828.701050 654.489197,824.768433 669.590698,827.232483 
	C681.677368,829.204651 690.624939,836.997375 691.775452,849.096252 
	C693.531128,867.558044 693.503601,886.189392 694.254883,905.300659 
	C686.777405,905.300659 680.489258,905.414917 674.213318,905.188965 
	C673.157715,905.151001 671.826111,903.831848 671.211365,902.765076 
	C670.445312,901.435669 670.290588,899.753906 669.823181,898.046143 
	C666.701721,900.137695 663.956482,901.977234 660.868225,903.975342 
M663.356323,884.906860 
	C669.055237,881.545898 666.495361,876.213257 666.885254,871.017456 
	C663.600952,871.837463 660.657593,872.327393 657.891541,873.314331 
	C652.245056,875.329102 649.326294,879.419556 650.603638,883.050720 
	C651.985474,886.978943 656.547119,887.841675 663.356323,884.906860 
z"/>
<path fill="#FDFEFF" opacity="1.000000" stroke="none" 
	d="
M954.739990,854.397522 
	C954.822327,861.390137 954.822327,867.968628 954.822327,874.915588 
	C939.885620,874.915588 925.630920,874.915588 911.318176,874.915588 
	C913.317810,886.999756 924.002014,889.542969 944.423889,882.931946 
	C947.140503,887.896301 949.895264,892.930298 952.620056,897.909668 
	C933.915466,912.090332 899.948181,911.381165 888.756592,885.209900 
	C882.031982,869.484436 883.149841,853.787537 894.188843,840.060242 
	C903.582092,828.379517 916.274109,824.399292 930.848022,827.513428 
	C944.992920,830.535828 951.755798,840.627441 954.739990,854.397522 
M918.005371,847.285278 
	C913.887695,849.238403 911.072510,852.114807 910.786194,857.302307 
	C918.288879,857.302307 925.468567,857.302307 932.649414,857.302307 
	C932.637207,848.537415 928.512146,845.572327 918.005371,847.285278 
z"/>
<path fill="#FCFDFF" opacity="1.000000" stroke="none" 
	d="
M865.828857,850.930359 
	C864.200684,850.882935 862.773499,850.608643 861.385193,850.201843 
	C856.686646,848.825073 852.063232,847.052917 847.274170,846.208801 
	C845.847900,845.957397 843.971680,848.258789 842.301636,849.390503 
	C843.456909,851.026611 844.254150,853.386780 845.832581,854.167114 
	C851.182373,856.812256 856.913940,858.677063 862.305908,861.246643 
	C871.765686,865.754822 877.070801,873.062317 875.925781,883.933960 
	C874.790283,894.715210 868.378601,901.552734 858.457886,904.867126 
	C846.408142,908.892944 834.479309,907.739807 823.031555,902.280884 
	C819.752747,900.717407 816.669250,898.744263 812.974915,896.665588 
	C817.034912,890.978271 820.835754,885.653992 824.820862,880.071594 
	C826.482788,881.153809 827.744812,882.283813 829.222351,882.879517 
	C833.505371,884.605957 837.773315,886.584290 842.244385,887.557312 
	C845.468567,888.258972 849.836182,888.625793 851.016785,884.159729 
	C852.205505,879.663086 847.988098,878.941040 845.070068,877.577820 
	C839.506470,874.978638 833.623779,872.914978 828.406189,869.750793 
	C814.122131,861.088013 813.683838,841.625732 827.515869,832.256775 
	C838.089905,825.094604 849.816895,825.039856 861.514221,828.688049 
	C866.651245,830.290100 871.319641,833.394592 876.772156,836.100403 
	C872.883362,841.373596 869.465515,846.008240 865.828857,850.930359 
z"/>
<path fill="#FCFDFF" opacity="1.000000" stroke="none" 
	d="
M1005.764038,851.359985 
	C999.261536,855.124390 996.350647,860.327271 996.488342,867.583008 
	C996.721802,879.885315 996.552551,892.195374 996.552551,904.916504 
	C987.700134,904.916504 979.004456,904.916504 970.252197,904.916504 
	C970.252197,879.422729 970.252197,854.022217 970.252197,828.379395 
	C977.422974,828.379395 984.336304,828.379395 991.517578,828.379395 
	C992.184753,832.486084 992.832092,836.470337 993.677002,841.670837 
	C1001.471985,829.346924 1011.251892,823.951233 1025.446777,827.925537 
	C1024.015259,835.651062 1022.641907,843.063293 1021.454834,849.470032 
	C1015.792542,850.094666 1010.948792,850.629028 1005.764038,851.359985 
z"/>
<path fill="#FDFEFF" opacity="1.000000" stroke="none" 
	d="
M764.936340,835.005249 
	C763.869263,840.446960 762.854065,845.467224 761.838013,850.491333 
	C758.773804,850.211121 756.001709,849.719604 753.235107,849.748596 
	C744.383301,849.841187 737.151184,857.235352 737.133362,866.068970 
	C737.107483,878.882935 737.126770,891.696960 737.126770,904.918030 
	C728.345093,904.918030 719.808289,904.918030 710.983276,904.918030 
	C710.983276,879.507446 710.983276,854.104980 710.983276,828.420959 
	C717.945679,828.420959 724.720581,828.420959 732.088379,828.420959 
	C732.775879,832.386597 733.491760,836.515625 734.385681,841.671753 
	C742.060059,829.400085 751.901978,823.830566 766.065063,827.954468 
	C765.669434,830.390076 765.328796,832.486938 764.936340,835.005249 
z"/>
<path fill="#FBFCFE" opacity="1.000000" stroke="none" 
	d="
M774.991882,874.000000 
	C774.991882,858.554382 774.991882,843.608765 774.991882,828.408569 
	C784.045410,828.408569 792.607239,828.408569 801.440918,828.408569 
	C801.440918,853.926636 801.440918,879.187317 801.440918,904.904419 
	C792.782166,904.904419 784.083435,904.904419 774.991882,904.904419 
	C774.991882,894.766479 774.991882,884.633240 774.991882,874.000000 
z"/>
<path fill="#FBFCFE" opacity="1.000000" stroke="none" 
	d="
M783.205261,793.006714 
	C793.021973,791.199768 799.959351,794.326782 802.076172,801.268555 
	C804.285034,808.512146 800.913025,815.551453 794.122314,817.872925 
	C786.202148,820.580566 777.699341,817.485229 774.899719,810.875061 
	C771.835876,803.641235 774.855713,796.847534 783.205261,793.006714 
z"/>
<path fill="#086BE1" opacity="1.000000" stroke="none" 
	d="
M885.999939,311.142151 
	C893.464172,311.142151 900.428406,311.142151 907.939819,311.142151 
	C907.939819,341.934906 907.939819,372.322113 907.939819,403.164246 
	C938.070251,403.164246 967.651062,403.164246 997.542542,403.164246 
	C997.542542,512.174744 997.542542,620.724487 997.542542,729.566162 
	C892.980652,729.566162 788.584229,729.566162 683.809265,729.566162 
	C683.809265,708.152039 683.809265,686.903870 683.809265,665.042114 
	C781.422729,665.042114 879.127991,665.042114 977.131592,665.042114 
	C977.131592,621.001709 977.131592,577.571838 977.131592,533.438232 
	C879.357544,533.438232 781.672668,533.438232 683.710205,533.438232 
	C683.710205,459.144806 683.710205,385.554138 683.710205,311.142151 
	C751.037170,311.142151 818.268616,311.142151 885.999939,311.142151 
z"/>
<path fill="#086BE1" opacity="1.000000" stroke="none" 
	d="
M743.000122,540.142395 
	C817.321655,540.142395 891.143250,540.186829 964.964478,540.036621 
	C969.598633,540.027222 970.789551,541.287476 970.765930,545.854614 
	C970.582031,581.347961 970.664368,616.842712 970.664368,652.337036 
	C970.664368,653.992737 970.664429,655.648438 970.664429,657.641235 
	C864.480652,657.641235 758.594299,657.641235 652.382019,657.641235 
	C652.382019,618.773499 652.382019,579.859741 652.382019,540.142395 
	C682.345520,540.142395 712.422791,540.142395 743.000122,540.142395 
M769.647095,620.889343 
	C768.410950,624.603394 767.174805,628.317444 765.870911,632.235107 
	C767.220825,632.381104 767.876038,632.496521 768.534119,632.516541 
	C778.640259,632.824646 778.715698,632.847717 782.047791,623.158142 
	C782.869446,620.768860 783.931641,619.683411 786.603638,619.792969 
	C791.757568,620.004456 796.926453,619.853882 802.089111,619.853760 
	C811.823914,619.853638 811.770996,619.872925 815.024231,628.829163 
	C815.518921,630.190979 816.656616,632.208862 817.682556,632.328186 
	C821.351074,632.755066 825.099426,632.495361 829.273926,632.495361 
	C821.609192,609.797546 814.242188,587.981262 806.825256,566.017212 
	C802.078674,566.017212 797.564514,566.316956 793.110596,565.928040 
	C789.113403,565.578979 787.301086,566.915588 786.075317,570.799316 
	C780.866272,587.303711 775.307922,603.697754 769.647095,620.889343 
M835.025024,631.003723 
	C839.106506,631.683472 843.187988,632.363281 847.454224,633.073853 
	C847.454224,609.980164 847.454224,588.268372 847.454224,566.406616 
	C843.169922,566.406616 839.161133,566.406616 834.991150,566.406616 
	C834.991150,587.891541 834.991150,608.987732 835.025024,631.003723 
z"/>
<path fill="#076AE1" opacity="1.000000" stroke="none" 
	d="
M921.829590,322.162781 
	C946.391846,346.718994 970.702881,371.024506 995.725525,396.041443 
	C968.246094,396.041443 941.888855,396.041443 915.197571,396.041443 
	C915.197571,369.483124 915.197571,342.987274 915.197571,314.800262 
	C917.904297,317.817078 919.741333,319.864563 921.829590,322.162781 
z"/>
<path fill="#1170E2" opacity="1.000000" stroke="none" 
	d="
M659.788757,664.857788 
	C665.514587,664.844177 670.815552,664.844177 676.438599,664.844177 
	C676.438599,671.147278 676.438599,677.067444 676.438599,684.088196 
	C673.481873,681.228210 670.958862,678.827393 668.480957,676.380798 
	C665.402893,673.341492 662.318054,670.305664 659.359680,667.152466 
	C658.980957,666.748718 659.344299,665.648743 659.788757,664.857788 
z"/>
<path fill="#1170E2" opacity="1.000000" stroke="none" 
	d="
M663.029846,885.123047 
	C656.547119,887.841675 651.985474,886.978943 650.603638,883.050720 
	C649.326294,879.419556 652.245056,875.329102 657.891541,873.314331 
	C660.657593,872.327393 663.600952,871.837463 666.885254,871.017456 
	C666.495361,876.213257 669.055237,881.545898 663.029846,885.123047 
z"/>
<path fill="#1975E3" opacity="1.000000" stroke="none" 
	d="
M918.368103,847.166504 
	C928.512146,845.572327 932.637207,848.537415 932.649414,857.302307 
	C925.468567,857.302307 918.288879,857.302307 910.786194,857.302307 
	C911.072510,852.114807 913.887695,849.238403 918.368103,847.166504 
z"/>
<path fill="#F7FAFE" opacity="1.000000" stroke="none" 
	d="
M769.762146,620.510742 
	C775.307922,603.697754 780.866272,587.303711 786.075317,570.799316 
	C787.301086,566.915588 789.113403,565.578979 793.110596,565.928040 
	C797.564514,566.316956 802.078674,566.017212 806.825256,566.017212 
	C814.242188,587.981262 821.609192,609.797546 829.273926,632.495361 
	C825.099426,632.495361 821.351074,632.755066 817.682556,632.328186 
	C816.656616,632.208862 815.518921,630.190979 815.024231,628.829163 
	C811.770996,619.872925 811.823914,619.853638 802.089111,619.853760 
	C796.926453,619.853882 791.757568,620.004456 786.603638,619.792969 
	C783.931641,619.683411 782.869446,620.768860 782.047791,623.158142 
	C778.715698,632.847717 778.640259,632.824646 768.534119,632.516541 
	C767.876038,632.496521 767.220825,632.381104 765.870911,632.235107 
	C767.174805,628.317444 768.410950,624.603394 769.762146,620.510742 
M797.522339,577.241211 
	C793.808167,588.046204 790.093994,598.851135 786.220764,610.118835 
	C794.315247,610.118835 801.220642,610.118835 808.220398,610.118835 
	C808.220398,609.378174 808.346130,608.852173 808.202026,608.415039 
	C804.832092,598.196289 801.432983,587.987061 797.522339,577.241211 
z"/>
<path fill="#F7FAFE" opacity="1.000000" stroke="none" 
	d="
M835.008057,630.543823 
	C834.991150,608.987732 834.991150,587.891541 834.991150,566.406616 
	C839.161133,566.406616 843.169922,566.406616 847.454224,566.406616 
	C847.454224,588.268372 847.454224,609.980164 847.454224,633.073853 
	C843.187988,632.363281 839.106506,631.683472 835.008057,630.543823 
z"/>
<path fill="#0C6DE2" opacity="1.000000" stroke="none" 
	d="
M797.780823,577.508667 
	C801.432983,587.987061 804.832092,598.196289 808.202026,608.415039 
	C808.346130,608.852173 808.220398,609.378174 808.220398,610.118835 
	C801.220642,610.118835 794.315247,610.118835 786.220764,610.118835 
	C790.093994,598.851135 793.808167,588.046204 797.780823,577.508667 
z"/>
</svg>